<svg xmlns="http://www.w3.org/2000/svg" viewBox="0 0 496 496"><g><path d="M292.281 72.977C286.496 67.184 278.816 64 270.625 64 253.742 64 240 77.734 240 94.633c0 8.176 3.184 15.863 8.969 21.656l3.719 3.711L25.535 347.152C9.07 363.617 0 385.512 0 408.81 0 456.879 39.121 496 87.191 496c23.29 0 45.184-9.07 61.657-25.535L376 243.312l3.719 3.711c5.785 5.793 13.465 8.977 21.656 8.977C418.258 256 432 242.266 432 225.367c0-8.176-3.184-15.863-8.969-21.656zM137.535 459.152C124.098 472.594 106.207 480 87.191 480 47.937 480 16 448.062 16 408.809c0-19.016 7.406-36.899 20.848-50.344L75.313 320h201.375zM401.375 240a14.72 14.72 0 0 1-10.344-4.29L376 220.689 292.687 304H91.313L120 275.312l18.344 18.344 11.312-11.312L131.312 264 144 251.312l34.344 34.344 11.312-11.312L155.312 240 168 227.312l18.344 18.344 11.312-11.312L179.312 216 192 203.312l34.344 34.344 11.312-11.312L203.312 192 216 179.312l18.344 18.344 11.312-11.312L227.312 168 240 155.312l34.344 34.344 11.312-11.312L251.312 144 264 131.32l82.344 82.336 11.312-11.312-97.375-97.367A14.554 14.554 0 0 1 256 94.633C256 86.559 262.559 80 270.625 80a14.72 14.72 0 0 1 10.344 4.29l130.75 130.733A14.554 14.554 0 0 1 416 225.367c0 8.074-6.559 14.633-14.625 14.633zM464 88c-17.648 0-32 14.352-32 32s14.352 32 32 32 32-14.352 32-32-14.352-32-32-32zm0 48c-8.824 0-16-7.176-16-16s7.176-16 16-16 16 7.176 16 16-7.176 16-16 16zM344 72c13.23 0 24-10.77 24-24s-10.77-24-24-24-24 10.77-24 24 10.77 24 24 24zm0-32c4.414 0 8 3.594 8 8s-3.586 8-8 8-8-3.594-8-8 3.586-8 8-8zM440 48c13.23 0 24-10.77 24-24S453.23 0 440 0s-24 10.77-24 24 10.77 24 24 24zm0-32c4.414 0 8 3.594 8 8s-3.586 8-8 8-8-3.594-8-8 3.586-8 8-8zm0 0" fill="#ffffff" opacity="1" data-original="#000000"></path><path d="M104 368c0-13.23-10.77-24-24-24s-24 10.77-24 24 10.77 24 24 24 24-10.77 24-24zm-32 0c0-4.406 3.586-8 8-8s8 3.594 8 8-3.586 8-8 8-8-3.594-8-8zM168 344c-13.23 0-24 10.77-24 24s10.77 24 24 24 24-10.77 24-24-10.77-24-24-24zm0 32c-4.414 0-8-3.594-8-8s3.586-8 8-8 8 3.594 8 8-3.586 8-8 8zM96 416c-13.23 0-24 10.77-24 24s10.77 24 24 24 24-10.77 24-24-10.77-24-24-24zm0 32c-4.414 0-8-3.594-8-8s3.586-8 8-8 8 3.594 8 8-3.586 8-8 8zm0 0" fill="#ffffff" opacity="1" data-original="#000000"></path></g></svg>