<?xml version="1.0" encoding="UTF-8"?>
<svg xmlns="http://www.w3.org/2000/svg" width="383" height="80" viewBox="0 0 383 80" fill="none">
  <g clip-path="url(#clip0_304_1199)">
    <path fill-rule="evenodd" clip-rule="evenodd" d="M136.846 15.0802C135.591 15.294 134.754 16.1491 134.336 17.5387C134.127 18.1801 134.127 18.8215 132.872 35.8177C132.244 45.5452 131.617 53.4554 131.617 53.4554C131.617 53.4554 130.467 53.4554 129.107 53.4554C126.702 53.4554 126.597 53.4554 126.179 53.6692C125.552 53.883 125.029 54.5243 124.715 55.1657C124.401 55.914 124.401 56.876 124.401 60.7242V64.4655H147.931C167.277 64.4655 171.565 64.4655 171.878 64.3586C173.133 64.038 173.865 63.1828 174.074 61.9001C174.074 61.5794 174.179 59.7622 174.179 57.4105V53.4554H171.146H168.114L168.218 50.0347C168.218 48.1106 168.323 40.2004 168.427 32.504C168.532 19.8904 168.532 18.287 168.427 17.7525C168.114 16.256 167.277 15.4009 166.022 15.0802C165.395 14.9733 137.369 14.9733 136.846 15.0802ZM177.421 38.3832C177.421 55.3795 177.421 61.9001 177.525 62.2207C177.735 63.0759 178.257 63.8242 178.885 64.2517C179.721 64.6793 178.989 64.6793 198.545 64.6793C208.584 64.6793 217.578 64.6793 218.519 64.6793L220.297 64.5724V60.8311C220.297 58.8001 220.297 56.7691 220.192 56.4484C219.983 54.9519 219.355 54.0967 217.996 53.6692C217.787 53.5623 217.159 53.5623 216.427 53.5623H215.172V35.604V17.6456L214.963 17.1112C214.754 16.4698 214.231 15.8284 213.708 15.5077C212.976 15.0802 212.872 15.0802 207.748 15.0802H202.937V34.3212V53.5623H196.349H189.761V35.4971V17.4319L189.552 16.8974C189.238 16.256 188.715 15.6146 187.983 15.294L187.46 15.0802H182.545H177.63V38.3832H177.421ZM94.911 15.4009C93.5515 15.6146 92.7149 16.4698 92.4012 17.8594C92.2966 18.287 92.2966 22.0283 92.2966 41.697V65H97.3162H102.336L102.859 64.7862C103.8 64.3586 104.323 63.6104 104.532 62.5414C104.637 62.2207 104.637 59.976 104.637 56.5553V51.1037H109.029C113.525 51.1037 114.676 51.1037 116.663 50.783C118.963 50.4623 120.741 49.9278 122.414 49.0727C125.447 47.5762 127.329 45.3314 128.48 41.697C129.735 37.7419 129.944 31.542 129.003 26.7317C128.375 23.7386 127.225 21.2801 125.552 19.6766C123.46 17.5387 120.532 16.3629 115.721 15.8284C114.78 15.7215 113.316 15.7215 104.95 15.7215C99.5123 15.4009 95.0156 15.4009 94.911 15.4009ZM156.819 39.7729V53.4554H150.127C146.467 53.4554 143.434 53.4554 143.434 53.3485C143.434 53.3485 143.538 52.6002 143.643 51.7451C143.852 49.3934 144.48 42.659 145.107 34.3212C145.421 30.1523 145.735 26.5179 145.735 26.3041V25.9834H151.172H156.61L156.819 39.7729ZM115.094 26.7317C116.767 27.1593 117.186 27.6937 117.604 29.6179C117.708 30.3661 117.813 30.6868 117.813 33.0385C117.813 35.2833 117.813 35.8177 117.708 36.566C117.395 38.597 116.976 39.3453 115.721 39.666C114.571 39.9866 113.839 40.0935 109.133 40.0935H104.637V33.2523V26.411H109.552C114.257 26.6248 114.467 26.6248 115.094 26.7317Z" fill="#337CFF"></path>
    <path d="M26.6095 1.89696C29.9014 0.873703 33.0104 0.22254 36.9424 0.0364935C37.8568 -0.0565298 41.2401 0.0364935 42.3374 0.22254C48.5554 0.78068 54.4077 2.82719 59.5284 6.08301C67.118 10.9202 72.8788 18.2691 75.805 26.8272C76.5365 28.8737 77.1766 31.4784 77.1766 32.1295C77.1766 33.8039 75.8964 35.3853 74.2505 35.6644C73.6104 35.7574 60.5342 35.7574 59.7113 35.6644C58.8883 35.5714 57.791 35.1993 57.0595 34.7342C56.3279 34.2691 55.4135 33.3388 54.9563 32.6877C54.7734 32.4086 53.036 28.9667 51.0243 24.8737C48.464 19.6644 47.3667 17.4318 47.0923 17.1528C46.6351 16.5946 45.9951 16.2225 45.355 15.9435C44.8978 15.8504 44.7149 15.7574 44.0748 15.8504C43.4347 15.8504 43.2518 15.9435 42.7946 16.1295C42.1545 16.5016 41.423 17.0597 41.0572 17.8039C40.8743 18.176 39.9599 21.3388 37.3081 30.9202C35.3878 37.897 33.7419 43.7574 33.6505 43.9435C33.559 44.1295 33.3761 44.4086 33.2847 44.5946C32.736 45.2458 31.8216 45.4318 31.0901 45.0598C30.5414 44.7807 30.2671 44.5016 29.9928 43.8504C28.164 39.9435 24.7806 37.1528 20.7572 36.0365C19.1113 35.5714 18.9284 35.5714 10.7901 35.5714C6.30947 35.5714 3.10902 35.5714 2.92614 35.4784C1.92028 35.2923 0.822984 34.5481 0.457219 33.6179C1.15759e-05 32.5946 1.15759e-05 31.9435 0.365777 30.176C1.64596 25.5249 3.65767 21.0597 6.40091 17.0597C11.3387 9.89696 18.4712 4.59463 26.6095 1.89696Z" fill="#337CFF"></path>
    <path d="M43.8004 35.4784C44.0748 34.8272 44.6234 34.3621 45.2635 34.083C46.1779 33.8039 47.3667 34.083 47.8239 34.9202C47.9153 35.1063 48.1896 35.4784 48.3725 35.8505C50.6586 39.9435 54.7734 42.6412 59.5284 43.0132C59.9856 43.0132 63.4604 43.1063 67.3923 43.1063C74.0676 43.1063 74.4333 43.1063 74.8905 43.2923C75.9878 43.6644 76.9022 44.5946 77.1766 45.6179C77.3595 46.2691 77.3595 47.0132 76.9937 48.3156C75.8049 53.8039 73.4275 59.1063 70.0441 63.6644C63.7347 72.2225 54.4991 77.8039 44.1662 79.2923C41.9716 79.5714 41.1486 79.6644 38.4968 79.6644C35.9365 79.6644 35.0221 79.5714 32.8275 79.2923C25.4207 78.2691 18.654 75.1063 12.8932 70.083C11.7045 69.0598 9.5099 66.8272 8.50404 65.6179C4.29773 60.5016 1.37161 54.5481 -1.41198e-05 48.2225C-0.36578 46.6412 -0.274338 45.8039 0.182869 44.8737C0.457193 44.4086 1.00584 43.8505 1.46305 43.5714C2.19458 43.1063 1.92026 43.1063 10.2414 43.1063C18.654 43.1063 18.4712 43.1063 19.6599 43.5714C21.123 44.2225 22.4031 45.3388 23.1347 46.8272C23.3176 47.1063 24.8721 50.6412 26.6094 54.5481C28.3468 58.4551 29.9013 61.897 29.9928 62.176C30.5414 63.0132 31.4558 63.5714 32.4617 63.7574C33.9248 63.9435 35.4793 63.1993 36.2108 61.897C36.3937 61.5249 37.3995 58.176 39.9599 48.5946C42.1545 41.4319 43.8004 35.5714 43.8004 35.4784Z" fill="#337CFF"></path>
    <path fill-rule="evenodd" clip-rule="evenodd" d="M370.665 19.5917C370.783 21.2485 371.486 21.7219 373.363 21.7219C374.067 21.7219 374.302 21.6035 374.654 21.4852C375.24 21.1302 375.475 20.6568 375.475 19.7101V19H374.536C373.715 19 373.598 19 373.481 19.1183C373.363 19.2367 373.363 19.355 373.363 19.4734C373.363 19.5917 373.246 19.7101 373.246 19.8284C373.011 19.9467 372.894 19.8284 372.894 19.4734C372.894 19.1183 372.66 19 371.604 19H370.665V19.5917ZM235.173 21.9586C235.056 21.9586 234.821 22.0769 234.821 22.1953C234.821 22.3136 234.704 24.4438 234.704 27.0473V31.7811H235.642C237.05 31.7811 237.05 31.7811 237.05 30.2426V29.0592H237.871C240.804 29.0592 241.742 28.2308 241.86 25.8639C241.977 23.7337 241.39 22.5503 239.983 22.1953C239.514 21.9586 235.642 21.8402 235.173 21.9586ZM244.675 21.9586C244.558 21.9586 244.441 22.0769 244.323 22.1953C244.206 22.3136 244.206 22.6686 244.206 27.0473V31.7811H247.139C250.775 31.7811 250.541 31.8994 250.541 30.4793V29.5325H248.546H246.552V28.7041V27.8757H248.194C250.306 27.8757 250.189 27.8757 250.189 26.574V25.6272H248.429H246.669V24.9172V24.0888H248.429C250.423 24.0888 250.423 24.0888 250.541 23.497C250.541 23.3787 250.541 22.9053 250.541 22.5503V21.9586H247.725C246.2 21.8402 244.792 21.9586 244.675 21.9586ZM256.054 21.9586C253.825 22.0769 252.887 22.9053 252.535 24.6805C252.3 25.6272 252.418 28.8225 252.652 29.4142C252.887 30.1243 253.239 30.716 253.708 31.071C254.412 31.5444 255.233 31.6627 257.345 31.6627H259.221V30.8343C259.221 29.5325 259.221 29.5325 257.345 29.5325C254.998 29.4142 254.881 29.4142 254.881 27.0473C254.881 24.5621 254.998 24.4438 256.406 24.2071C256.758 24.2071 257.579 24.0888 258.048 24.0888C259.221 24.0888 259.221 24.0888 259.221 22.787V21.8402H258.166C257.462 21.8402 256.523 21.9586 256.054 21.9586ZM261.92 21.9586C261.802 21.9586 261.685 22.0769 261.568 22.1953C261.45 22.3136 261.45 22.6686 261.45 27.0473V31.7811H262.389C263.21 31.7811 263.445 31.7811 263.562 31.6627L263.797 31.5444V27.8757V24.2071H265.087H266.377V27.8757C266.377 32.2544 266.26 31.7811 267.785 31.7811H268.724V27.0473C268.724 24.4438 268.724 22.3136 268.606 22.1953C268.489 21.9586 268.02 21.8402 264.97 21.9586C263.445 21.8402 262.037 21.9586 261.92 21.9586ZM271.07 22.787C271.07 23.6154 271.07 23.7337 271.774 25.6272C272.595 27.8757 272.829 28.3491 273.181 28.7041C273.533 28.9408 274.12 29.0592 274.589 29.0592C274.941 29.0592 274.941 29.0592 274.824 29.1775C274.824 29.2959 274.824 29.4142 274.824 29.4142C274.824 29.4142 274.354 29.5325 273.651 29.5325C272.126 29.5325 272.126 29.5325 272.126 30.8343V31.7811H273.533C275.176 31.7811 275.645 31.6627 276.114 31.1893C276.583 30.716 276.935 30.0059 277.756 26.929C278.578 24.2071 278.578 23.9704 278.578 23.0237V22.0769H277.874C277.053 22.0769 276.701 22.1953 276.583 22.432C276.583 22.5503 276.231 23.497 275.997 24.5621C275.293 27.5207 275.41 27.284 274.941 27.1657H274.589L274.002 24.9172C273.651 23.7337 273.299 22.5503 273.299 22.432C273.064 22.1953 272.595 22.0769 271.774 22.0769H271.07V22.787ZM281.041 21.9586C280.924 21.9586 280.806 22.0769 280.689 22.1953C280.572 22.3136 280.572 22.6686 280.572 27.0473V31.7811H282.801C285.264 31.7811 285.968 31.6627 286.555 31.3077C286.906 31.071 287.141 30.9527 287.258 30.4793C287.493 30.0059 287.493 29.8876 287.493 28.7041C287.493 27.6391 287.493 27.4024 287.258 26.929C287.024 26.3373 286.437 25.8639 285.851 25.6272C285.616 25.5089 284.912 25.5089 284.091 25.3905H282.801V24.7988V24.0888H284.56C286.555 24.0888 286.555 24.0888 286.672 23.497C286.672 23.3787 286.672 22.9053 286.672 22.5503V21.9586H283.856C282.566 21.8402 281.158 21.9586 281.041 21.9586ZM291.599 21.9586C291.13 22.0769 291.13 22.1953 290.778 25.8639C290.66 27.7574 290.543 29.2959 290.543 29.4142C290.543 29.5325 290.426 29.5325 290.074 29.5325C289.253 29.5325 289.253 29.6509 289.135 30.8343V31.7811H290.074C292.068 31.6627 292.889 30.8343 293.124 28.8225C293.124 28.3491 293.241 27.284 293.358 26.4556C293.358 25.5089 293.476 24.6805 293.476 24.5621V24.2071H294.414H295.353V27.6391C295.353 32.0178 295.235 31.6627 296.76 31.6627H297.816V27.0473C297.816 22.5503 297.816 22.432 297.699 22.1953L297.582 21.9586H294.884C293.007 21.8402 291.716 21.9586 291.599 21.9586ZM300.162 26.8106V31.6627H301.101C301.805 31.6627 302.157 31.6627 302.274 31.5444C302.391 31.426 303.212 30.2426 304.151 28.8225L305.911 26.3373V28.8225C305.911 31.8994 305.911 31.6627 307.318 31.6627H308.257V26.6923V21.7219H307.318C306.732 21.7219 306.263 21.8402 306.145 21.8402C306.028 21.8402 305.207 23.142 304.268 24.5621L302.509 27.1657V24.6805C302.509 23.3787 302.391 22.1953 302.391 22.0769C302.274 21.8402 301.805 21.7219 300.866 21.7219H300.045V26.8106H300.162ZM311.189 21.9586C311.072 21.9586 310.838 22.0769 310.838 22.1953C310.838 22.3136 310.72 24.4438 310.72 27.0473V31.7811H311.659C313.066 31.7811 313.066 31.7811 313.066 29.8876V28.3491L314.357 29.8876C315.061 30.716 315.882 31.5444 315.999 31.6627C316.234 31.7811 316.468 31.8994 317.055 31.8994H317.759V31.071C317.759 30.5976 317.759 30.1243 317.642 30.0059C317.642 29.8876 316.938 29.1775 316.234 28.4675L314.943 27.1657L316.116 25.7456C316.82 25.0355 317.407 24.2071 317.407 24.0888C317.524 23.8521 317.524 23.497 317.524 22.9053V22.0769H316.703C316.116 22.0769 315.765 22.1953 315.647 22.3136C315.413 22.432 314.826 23.142 314.122 24.2071L312.832 25.8639V23.9704V22.0769H312.011C311.893 21.8402 311.307 21.9586 311.189 21.9586ZM322.686 21.9586C322.334 22.0769 322.099 22.1953 321.982 22.432C321.982 22.5503 321.395 24.2071 320.809 26.2189L319.636 29.7692V30.716V31.6627H320.457C321.278 31.6627 321.63 31.5444 321.747 31.3077C321.747 31.1893 321.865 30.8343 321.982 30.4793L322.217 29.8876H323.859H325.501L325.619 30.2426C325.619 30.4793 325.736 30.716 325.853 30.9527C325.97 31.5444 326.205 31.6627 327.261 31.6627H328.199V30.716C328.199 29.7692 328.082 29.6509 327.144 26.2189C326.557 24.3254 325.97 22.6686 325.97 22.432C325.736 21.9586 325.384 21.8402 324.211 21.8402C323.507 21.8402 322.92 21.9586 322.686 21.9586ZM330.194 26.574C330.194 31.1893 330.194 31.3077 330.428 31.426C330.546 31.5444 330.78 31.6627 331.601 31.6627H332.657V29.7692V27.8757H333.947H335.238V29.6509C335.238 31.7811 335.238 31.6627 336.646 31.6627H337.584V26.929C337.584 24.3254 337.584 22.1953 337.467 22.0769C337.349 21.8402 336.88 21.7219 336.059 21.7219H335.238V23.497V25.2722H333.947H332.657V23.8521C332.657 23.142 332.657 22.3136 332.54 22.0769C332.422 21.6035 332.188 21.4852 331.015 21.4852H330.194V26.574ZM343.45 21.9586C341.221 22.0769 340.282 22.9053 339.93 24.6805C339.696 25.6272 339.813 28.8225 340.048 29.4142C340.282 30.1243 340.634 30.716 341.103 31.071C341.807 31.5444 342.628 31.6627 344.74 31.6627H346.617V30.8343C346.617 29.5325 346.617 29.5325 344.74 29.5325C342.394 29.4142 342.276 29.4142 342.276 27.0473C342.276 24.5621 342.394 24.4438 343.801 24.2071C344.153 24.2071 344.975 24.0888 345.444 24.0888C346.617 24.0888 346.617 24.0888 346.617 22.787V21.8402H345.561C344.857 21.8402 343.919 21.9586 343.45 21.9586ZM349.315 21.9586C349.198 21.9586 348.963 22.0769 348.963 22.1953C348.963 22.3136 348.846 24.4438 348.846 27.0473V31.7811H349.784C351.192 31.7811 351.192 31.7811 351.192 29.8876V28.3491L352.482 29.8876C353.186 30.716 354.007 31.5444 354.125 31.6627C354.359 31.7811 354.594 31.8994 355.18 31.8994H355.884V31.071C355.884 30.5976 355.884 30.1243 355.767 30.0059C355.767 29.8876 355.063 29.1775 354.359 28.4675L353.069 27.1657L354.242 25.7456C354.946 25.0355 355.532 24.2071 355.532 24.0888C355.65 23.8521 355.65 23.497 355.65 22.9053V22.0769H354.829C354.242 22.0769 354.007 22.1953 353.773 22.3136C353.538 22.432 352.952 23.142 352.248 24.2071L350.957 25.8639V23.9704V22.0769H350.136C349.902 21.8402 349.432 21.9586 349.315 21.9586ZM358.348 26.8106V31.6627H359.286C359.99 31.6627 360.342 31.6627 360.459 31.5444C360.577 31.426 361.398 30.2426 362.336 28.8225L364.096 26.3373V28.8225C364.096 31.8994 364.096 31.6627 365.504 31.6627H366.442V26.6923V21.7219H365.504C364.917 21.7219 364.448 21.8402 364.331 21.8402C364.213 21.8402 363.392 23.142 362.454 24.5621L360.694 27.1657V24.6805C360.694 23.3787 360.577 22.1953 360.577 22.0769C360.459 21.8402 359.99 21.7219 359.052 21.7219H358.231V26.8106H358.348ZM368.906 26.8106V31.6627H369.844C370.548 31.6627 370.9 31.6627 371.017 31.5444C371.135 31.426 371.956 30.2426 372.894 28.8225L374.654 26.3373V28.8225C374.654 31.8994 374.654 31.6627 376.062 31.6627H377V26.6923V21.7219H376.062C375.475 21.7219 375.006 21.8402 374.888 21.8402C374.771 21.8402 373.95 23.142 373.011 24.5621L371.252 27.1657V24.6805C371.252 23.3787 371.135 22.1953 371.135 22.0769C371.017 21.8402 370.548 21.7219 369.61 21.7219H368.788V26.8106H368.906ZM324.445 25.8639C324.68 26.8107 324.915 27.6391 324.915 27.6391C324.915 27.7574 324.563 27.7574 323.859 27.7574C323.038 27.7574 322.803 27.7574 322.803 27.6391C322.803 27.5207 323.038 26.6923 323.39 25.7456C323.624 24.7988 323.859 23.9704 323.976 24.0888C323.976 24.0888 324.211 24.9172 324.445 25.8639ZM239.514 24.2071C239.748 24.3254 239.865 24.5621 239.865 25.5089C239.865 26.6923 239.748 26.8106 238.223 26.8106H237.285V25.3905V24.0888H238.34C238.81 24.0888 239.396 24.2071 239.514 24.2071ZM285.147 27.8757C285.264 27.9941 285.381 28.2308 285.381 28.5858C285.381 29.4142 285.264 29.5325 284.091 29.5325H283.153V28.5858V27.6391H284.091C284.795 27.6391 284.912 27.6391 285.147 27.8757ZM370.548 32.6095C370.665 34.2663 371.369 34.858 373.246 34.7396C373.95 34.7396 374.185 34.6213 374.536 34.503C375.123 34.1479 375.358 33.6746 375.358 32.7278V32.0178H374.419C373.598 32.0178 373.481 32.0177 373.363 32.1361C373.246 32.2544 373.246 32.3728 373.246 32.4911C373.246 32.6095 373.129 32.7278 373.129 32.8462C372.894 32.9645 372.777 32.8462 372.777 32.4911C372.777 32.1361 372.542 32.0178 371.486 32.0178H370.548V32.6095ZM286.789 34.7396C285.968 34.858 285.616 34.9763 285.147 35.4497C284.678 35.8047 284.443 36.3965 284.208 37.1065C284.091 37.8166 284.091 41.4852 284.208 42.1953C284.443 43.0237 284.795 43.7337 285.264 43.9704C285.851 44.3254 286.32 44.4438 287.493 44.5621C289.957 44.6805 291.13 44.0888 291.599 42.432C291.833 41.8402 291.833 41.6035 291.833 39.5917C291.833 37.5799 291.833 37.3432 291.599 36.7515C291.247 35.6864 290.66 34.9763 289.722 34.7396C289.135 34.7396 287.493 34.7396 286.789 34.7396ZM236.464 34.858C235.994 34.9763 235.994 35.0947 235.642 38.7633C235.525 40.6568 235.408 42.1953 235.408 42.3136C235.408 42.432 235.29 42.432 234.938 42.432C234.117 42.432 234.117 42.5503 234 43.6154V44.5621H238.81C244.441 44.5621 243.971 44.6805 243.971 43.2604V42.3136H243.385H242.798L242.564 38.8817C242.446 36.9882 242.212 35.3314 242.212 35.213C242.212 35.0947 241.977 34.9763 241.86 34.858C241.39 34.7396 236.933 34.7396 236.464 34.858ZM245.731 39.7101V44.5621H246.669C247.373 44.5621 247.725 44.5621 247.842 44.4438C247.96 44.3254 248.781 43.142 249.719 41.7219L251.479 39.2367V41.7219C251.479 44.7988 251.479 44.5621 252.887 44.5621H253.825V39.5917V34.7396H252.887C252.3 34.7396 251.831 34.858 251.714 34.858C251.596 34.858 250.775 36.1598 249.837 37.5799L248.077 40.1834V37.6982C248.077 36.3965 247.96 35.213 247.96 35.0947C247.842 34.858 247.373 34.7396 246.435 34.7396H245.614V39.7101H245.731ZM258.87 34.858C258.518 34.9763 258.283 35.0947 258.166 35.3314C258.166 35.4497 257.579 37.1065 256.993 39.1183L255.82 42.6686V43.6154V44.5621H256.641C257.462 44.5621 257.814 44.4438 257.931 44.2071C257.931 44.0888 258.048 43.7337 258.166 43.3787L258.4 42.787H260.043H261.685L261.802 43.142C261.802 43.3787 261.92 43.6154 262.037 43.8521C262.154 44.4438 262.389 44.5621 263.445 44.5621H264.383V43.6154C264.383 42.6686 264.266 42.5503 263.327 39.1183C262.741 37.2248 262.154 35.568 262.154 35.3314C261.92 34.858 261.568 34.7396 260.395 34.7396C259.691 34.858 259.104 34.858 258.87 34.858ZM266.964 34.858C266.847 34.858 266.729 34.9763 266.612 35.0947C266.495 35.213 266.495 35.568 266.495 39.9467V44.6805H267.433C268.254 44.6805 268.489 44.6805 268.606 44.5621L268.841 44.4438V40.7751V37.1065H270.483C272.595 37.1065 272.477 37.2249 272.477 35.8047V34.7396H269.779C268.372 34.858 267.081 34.858 266.964 34.858ZM274.354 39.4734C274.354 44.0888 274.354 44.2071 274.589 44.3254C274.706 44.4438 274.941 44.5621 275.762 44.5621H276.818V42.6686V40.7751H278.108H279.399V42.5503C279.399 44.6805 279.399 44.5621 280.806 44.5621H281.745V39.8284C281.745 37.2249 281.745 35.0947 281.628 34.9763C281.51 34.7396 281.041 34.6213 280.22 34.6213H279.399V36.3965V38.1716H278.108H276.818V37.1065C276.818 36.3965 276.818 35.568 276.701 35.3314C276.583 34.858 276.349 34.7396 275.176 34.7396H274.354V39.4734ZM297.347 34.858C295.118 34.9763 294.18 35.8047 293.828 37.5799C293.593 38.5266 293.71 41.7219 293.945 42.3136C294.18 43.0237 294.532 43.6154 295.001 43.9704C295.705 44.4438 296.526 44.5621 298.637 44.5621H300.514V43.7337C300.514 42.4319 300.514 42.432 298.637 42.432C296.291 42.3136 296.174 42.3136 296.174 39.9467C296.174 37.4615 296.291 37.3432 297.699 37.1065C298.051 37.1065 298.872 36.9882 299.341 36.9882C300.514 36.9882 300.514 36.9882 300.514 35.6864V34.7396H299.459C298.755 34.858 297.934 34.858 297.347 34.858ZM302.861 34.858C302.509 34.9763 302.391 35.213 302.391 36.1598V36.9882H303.564H304.737V40.7751V44.5621H305.793C307.318 44.5621 307.201 44.9172 307.201 40.5385V36.8698H308.374C309.782 36.8698 309.782 36.8698 309.782 35.568V34.7396H306.497C304.503 34.858 302.978 34.858 302.861 34.858ZM311.776 39.7101V44.5621H312.715C313.418 44.5621 313.77 44.5621 313.888 44.4438C314.005 44.3254 314.826 43.142 315.765 41.7219L317.524 39.2367V41.7219C317.524 44.7988 317.524 44.5621 318.932 44.5621H319.87V39.5917V34.7396H318.932C318.345 34.7396 317.876 34.858 317.759 34.858C317.642 34.858 316.82 36.1598 315.882 37.5799L314.122 40.1834V37.6982C314.122 36.3965 314.005 35.213 314.005 35.0947C313.888 34.858 313.418 34.7396 312.48 34.7396H311.776V39.7101ZM322.099 36.8698C322.099 39.2367 322.217 39.8284 322.568 40.4201C323.038 41.1302 324.094 41.4852 325.853 41.4852H326.674V42.787C326.674 44.5621 326.674 44.4438 328.082 44.4438H329.021V39.7101C329.021 34.1479 329.138 34.6213 327.613 34.6213H326.674V36.9882V39.355H325.736C324.445 39.355 324.563 39.4734 324.445 37.1065C324.445 35.4497 324.328 35.213 324.211 34.9763C324.094 34.858 323.859 34.858 323.038 34.7396H321.982L322.099 36.8698ZM332.071 34.858C331.953 34.858 331.836 34.9763 331.719 35.0947C331.601 35.213 331.601 35.568 331.601 39.9467V44.6805H334.534C338.171 44.6805 337.936 44.7988 337.936 43.3787V42.432H335.942H333.947V41.6036V40.7751H335.59C337.701 40.7751 337.584 40.7751 337.584 39.4734V38.5266H335.824H334.065V37.8166V37.1065H335.824C337.819 37.1065 337.819 37.1065 337.936 36.5148C337.936 36.3965 337.936 35.9231 337.936 35.568V34.9763H335.121C333.478 34.858 332.188 34.858 332.071 34.858ZM343.332 34.858C341.103 34.9763 340.165 35.8047 339.813 37.5799C339.578 38.5266 339.696 41.7219 339.93 42.3136C340.165 43.0237 340.634 43.6154 340.986 43.9704C341.69 44.4438 342.511 44.5621 344.623 44.5621H346.5V43.7337C346.5 42.4319 346.5 42.432 344.623 42.432C342.276 42.3136 342.159 42.3136 342.159 39.9467C342.159 37.4615 342.276 37.3432 343.684 37.1065C344.036 37.1065 344.857 36.9882 345.326 36.9882C346.5 36.9882 346.5 36.9882 346.5 35.6864V34.7396H345.444C344.74 34.858 343.919 34.858 343.332 34.858ZM349.198 34.858C349.08 34.858 348.846 34.9763 348.846 35.0947C348.846 35.213 348.728 37.3432 348.728 39.9467V44.6805H349.667C351.075 44.6805 351.075 44.6805 351.075 42.787V41.2485L352.365 42.787C353.069 43.6154 353.89 44.4438 354.007 44.5621C354.242 44.6805 354.477 44.7988 355.063 44.7988H355.767V43.9704C355.767 43.497 355.767 43.0237 355.65 42.9053C355.65 42.787 354.946 42.0769 354.242 41.3669L352.952 40.0651L354.125 38.645C354.829 37.9349 355.415 37.1065 355.415 36.9882C355.532 36.7515 355.532 36.3965 355.532 35.8047V34.7396H354.711C354.125 34.7396 353.773 34.858 353.655 34.9763C353.421 35.0947 352.834 35.8047 352.13 36.8698L350.84 38.5266V36.6331V34.7396H350.019C349.784 34.858 349.315 34.858 349.198 34.858ZM358.113 39.7101V44.5621H359.052C359.756 44.5621 360.107 44.5621 360.225 44.4438C360.342 44.3254 361.163 43.142 362.102 41.7219L363.861 39.2367V41.7219C363.861 44.7988 363.861 44.5621 365.269 44.5621H366.208V39.5917V34.7396H365.269C364.683 34.7396 364.213 34.858 364.096 34.858C363.979 34.858 363.158 36.1598 362.219 37.5799L360.459 40.1834V37.6982C360.459 36.3965 360.342 35.213 360.342 35.0947C360.225 34.858 359.756 34.7396 358.817 34.7396H357.996V39.7101H358.113ZM368.788 39.7101V44.5621H369.727C370.431 44.5621 370.783 44.5621 370.9 44.4438C371.017 44.3254 371.838 43.142 372.777 41.7219L374.536 39.2367V41.7219C374.536 44.7988 374.536 44.5621 375.944 44.5621H376.883V39.5917V34.7396H375.944C375.358 34.7396 374.888 34.858 374.771 34.858C374.654 34.858 373.833 36.1598 372.894 37.5799L371.135 40.1834V37.6982C371.135 36.3965 371.017 35.213 371.017 35.0947C370.9 34.858 370.431 34.7396 369.492 34.7396H368.671V39.7101H368.788ZM260.629 38.7633C260.864 39.7101 261.098 40.5385 261.098 40.5385C261.098 40.6568 260.747 40.6568 260.043 40.6568C259.221 40.6568 258.987 40.6568 258.987 40.5385C258.987 40.4201 259.221 39.5917 259.573 38.645C259.808 37.6982 260.043 36.8698 260.16 36.9882C260.16 36.9882 260.395 37.8166 260.629 38.7633ZM288.901 37.1065C289.253 37.3432 289.37 37.5799 289.37 39.4734C289.37 41.7219 289.37 42.1953 288.901 42.432C288.549 42.5503 287.493 42.5503 287.024 42.432C286.555 42.3136 286.555 41.9586 286.437 40.1834C286.437 37.5799 286.437 37.2249 287.141 37.1065C287.61 36.8698 288.666 36.9882 288.901 37.1065ZM239.865 37.4615C239.865 37.6982 239.983 38.7633 240.1 39.5917C240.217 40.5385 240.217 41.4852 240.335 41.8402V42.3136H239.044H237.871V41.9586C237.871 41.8402 237.989 40.6568 238.106 39.5917C238.223 38.4083 238.223 37.3432 238.34 37.2248V36.8698H239.044H239.748L239.865 37.4615ZM234.821 52.4911C234.821 57.1065 234.821 57.2248 235.056 57.3432C235.173 57.4615 235.408 57.5799 238.106 57.5799H240.921V58.1716C240.921 59 241.039 59 242.329 59H243.385V57.3432C243.385 55.8047 243.385 55.6864 243.15 55.568C243.033 55.4497 242.798 55.4497 242.681 55.4497H242.329V51.8994C242.329 49.8876 242.329 48.2308 242.212 48.2308C242.094 47.9941 241.625 47.8757 240.804 47.8757H239.983V51.6627V55.4497H238.692H237.402V52.1361C237.402 50.1243 237.402 48.5858 237.285 48.4675C237.167 47.9941 236.933 47.8757 235.76 47.8757H234.938V52.4911H234.821ZM245.614 47.8757C245.496 47.8757 245.379 47.9941 245.262 48.1124C245.144 48.2308 245.144 48.5858 245.144 52.9645V57.6982H248.077C251.714 57.6982 251.479 57.8166 251.479 56.3965V55.4497H249.485H247.491V54.6213V53.7929H249.133C251.244 53.7929 251.127 53.7929 251.127 52.4911V51.5444H249.368H247.608V50.8343V50.1243H249.368C251.362 50.1243 251.362 50.1243 251.479 49.5325C251.479 49.4142 251.479 48.9408 251.479 48.5858V47.9941H248.664C247.021 47.8757 245.731 47.8757 245.614 47.8757ZM253.591 52.4911C253.591 57.1065 253.591 57.2248 253.825 57.3432C253.943 57.4615 254.177 57.5799 254.998 57.5799H256.054V55.6864V53.7929H257.345H258.635V55.568C258.635 57.6982 258.635 57.5799 260.043 57.5799H260.981V52.8462C260.981 50.2426 260.981 48.1124 260.864 47.9941C260.747 47.7574 260.277 47.6391 259.456 47.6391H258.635V49.4142V51.1894H257.345H256.054V50.1243C256.054 49.4142 256.054 48.5858 255.937 48.3491C255.82 47.8757 255.585 47.7574 254.412 47.7574H253.591V52.4911ZM263.445 47.8757C263.093 47.9941 262.975 48.2308 262.975 49.1775V50.0059H264.148H265.322V53.7929V57.5799H266.377C267.902 57.5799 267.785 57.9349 267.785 53.5562V49.8876H268.958C270.366 49.8876 270.366 49.8876 270.366 48.5858V47.7574H267.081C265.204 47.8757 263.562 47.8757 263.445 47.8757ZM272.712 47.8757C272.595 47.8757 272.36 47.9941 272.36 48.1124C272.36 48.2308 272.243 50.3609 272.243 52.9645V57.6982H273.181C274.589 57.6982 274.589 57.6982 274.589 56.1598V54.9763H275.41C278.343 54.9763 279.281 54.1479 279.399 51.7811C279.516 49.6509 278.929 48.4675 277.522 48.1124C277.053 47.8757 273.181 47.7574 272.712 47.8757ZM277.052 50.1243C277.287 50.2426 277.404 50.4793 277.404 51.426C277.404 52.6095 277.287 52.7278 275.762 52.7278H274.824V51.3077V49.8876H275.879C276.349 50.0059 276.935 50.1243 277.052 50.1243Z" fill="#FF6682"></path>
  </g>
  <defs>
    <clipPath id="clip0_304_1199">
      <rect width="383" height="80" fill="white"></rect>
    </clipPath>
  </defs>
</svg>
